<?xml version="1.0" encoding="UTF-8" standalone="no"?>
<!-- Generator: Adobe Illustrator 19.0.0, SVG Export Plug-In . SVG Version: 6.00 Build 0)  -->

<svg
   version="1.1"
   id="Layer_1"
   x="0px"
   y="0px"
   viewBox="0 0 512.002 512.002"
   style="enable-background:new 0 0 512.002 512.002;"
   xml:space="preserve"
   sodipodi:docname="logo_orig.svg"
   inkscape:version="1.1.1 (3bf5ae0d25, 2021-09-20)"
   inkscape:export-filename="/home/juanma42/Documentos/programacion practica/book_search_bar/src/assets/logo192.png"
   inkscape:export-xdpi="96"
   inkscape:export-ydpi="96"
   xmlns:inkscape="http://www.inkscape.org/namespaces/inkscape"
   xmlns:sodipodi="http://sodipodi.sourceforge.net/DTD/sodipodi-0.dtd"
   xmlns="http://www.w3.org/2000/svg"
   xmlns:svg="http://www.w3.org/2000/svg"><defs
   id="defs49" /><sodipodi:namedview
   id="namedview47"
   pagecolor="#ffffff"
   bordercolor="#666666"
   borderopacity="1.0"
   inkscape:pageshadow="2"
   inkscape:pageopacity="0.0"
   inkscape:pagecheckerboard="0"
   showgrid="false"
   inkscape:zoom="0.5"
   inkscape:cx="6"
   inkscape:cy="0"
   inkscape:window-width="1856"
   inkscape:window-height="1050"
   inkscape:window-x="64"
   inkscape:window-y="0"
   inkscape:window-maximized="1"
   inkscape:current-layer="Layer_1" />
<path
   style="fill:#10BAFC;"
   d="M501.529,219.532L303.279,21.284c-14.451-14.451-37.851-14.479-52.266-0.064L20.897,251.335  l0.008,0.008c-14.114,14.438-13.994,37.609,0.356,51.959l198.249,198.25L501.529,219.532z"
   id="path2" />
<path
   style="fill:#FFFFFF;"
   d="M271.713,449.348L73.464,251.098c-14.451-14.451-37.852-14.479-52.268-0.064l0,0  C6.781,265.45,6.809,288.85,21.259,303.3l198.249,198.25L271.713,449.348z"
   id="path4" />
<path
   d="m 175.6134,412.20688 c -1.0696,0 -2.1396,-0.408 -2.9556,-1.2244 l -1.0772,-1.0772 c -1.6324,-1.63241 -1.6324,-4.2788 0,-5.9116 1.6324,-1.6324 4.2788,-1.6324 5.9116,0 l 1.0772,1.07719 c 1.6324,1.63241 1.6324,4.27881 0,5.91161 -0.8168,0.816 -1.8864,1.2244 -2.956,1.2244 z"
   id="path6"
   style="stroke-width:0.4" />
<path
   d="m 152.19529,390.87275 -106.563,-106.563 c -1.590984,-4.01327 0.924575,-5.34626 3.815843,-4.52868 l 106.562997,106.563 c 5.98676,5.31033 -0.27224,8.03779 -3.81584,4.52868 z"
   id="path8"
   sodipodi:nodetypes="ccccc" />
<path
   d="M316.41,144.834c-1.959-1.96-4.618-3.061-7.389-3.061h-47.853c-5.771,0-10.449,4.678-10.449,10.449  s4.678,10.449,10.449,10.449h22.625l-8.638,8.638h-43.522c-5.771,0-10.449,4.678-10.449,10.449s4.678,10.449,10.449,10.449h22.623  l-8.638,8.638l-43.524,0.001c-5.771,0-10.449,4.679-10.449,10.449c0,5.771,4.678,10.449,10.449,10.449l22.625-0.001l-20.319,20.319  l-16.613-16.613c-4.081-4.081-10.697-4.081-14.779,0c-4.081,4.081-4.081,10.697,0,14.779l48.003,48.004  c2.041,2.041,4.715,3.061,7.389,3.061c2.674,0,5.349-1.02,7.389-3.061c4.081-4.081,4.081-10.697,0-14.779l-16.611-16.613  l20.318-20.318v22.624c0,5.771,4.678,10.449,10.449,10.449s10.449-4.678,10.449-10.449v-43.523l8.639-8.639v22.624  c0,5.771,4.679,10.449,10.449,10.449c5.771,0,10.449-4.679,10.449-10.449l-0.001-43.522l8.637-8.636v22.624  c0,5.771,4.678,10.449,10.449,10.449c5.77,0,10.449-4.678,10.449-10.449l0.001-47.852  C319.471,149.451,318.37,146.793,316.41,144.834z"
   id="path10" />
<rect
   x="310.358"
   y="124.549"
   transform="matrix(-0.7071 -0.7071 0.7071 -0.7071 323.9144 782.0992)"
   style="fill:#FF4444;"
   width="27.155"
   height="398.831"
   id="rect12" />
<path
   d="m 23.952544,245.72723 c -0.162,0.162 -0.466,0.497 -0.466,0.497 -17.6530006,18.492 -27.3259548,36.08995 -9.169,54.247 L 212.56654,498.72122 c 2.041,2.041 4.715,3.061 7.389,3.061 2.674,0 5.349,-1.02 7.389,-3.061 l 56.69315,-61.57897 C 81.298544,233.49023 77.601884,204.11542 23.952544,245.72723 Z m 167.482996,202.308 v 0 l 36.90037,-38.18906 8.67362,8.54567 -37.26083,37.60024 z M 91.298544,245.49023 c -6.777736,-6.80723 -32.065711,-18.62452 -24.505,-13.048 22.342482,16.47904 227.259426,216.68481 24.505,13.048 z m -52.476,14.939 c 0.078,-0.08 0.155,-0.162 0.231,-0.245 10.32,-10.297 27.043932,-10.18436 37.468,0.085 l 134.688996,132.69 -37.425,37.425 -134.689996,-132.69 c -10.310262,-10.15717 -10.356,-26.951 -0.273,-37.265 z m 181.131996,216.125 -12.191,-12.191 37.426,-37.425 12.19,12.191 z"
   id="path14"
   sodipodi:nodetypes="ccscscccccccccsssccsccscccccc" />
<g
   id="g16">
</g>
<g
   id="g18">
</g>
<g
   id="g20">
</g>
<g
   id="g22">
</g>
<g
   id="g24">
</g>
<g
   id="g26">
</g>
<g
   id="g28">
</g>
<g
   id="g30">
</g>
<g
   id="g32">
</g>
<g
   id="g34">
</g>
<g
   id="g36">
</g>
<g
   id="g38">
</g>
<g
   id="g40">
</g>
<g
   id="g42">
</g>
<g
   id="g44">
</g>
</svg>
